<svg id="Layer_1" data-name="Layer 1" xmlns="http://www.w3.org/2000/svg" viewBox="0 0 639.53 478.97"><defs><style>.cls-1{fill:#fff;}</style></defs><path d="M440.68,177.3c-.91-4.39-1.79-8.37-2.56-12.36-2.48-12.82-4.91-25.64-7.37-38.45-1.35-7-2.64-14-4.09-20.94-3.13-15-6.54-30-9.46-45.11-1.95-10.06-3.35-20.22-4.82-30.36-.63-4.28,1.29-5.6,5.84-6.3,11.93-1.82,19.21,6,27.31,11.91C463.19,48.6,480.52,62,498.08,75q24.15,17.94,48.5,35.63,47.53,34.77,95.1,69.49c9.49,7,18.7,14.3,28.17,21.29,20.8,15.33,41.91,30.24,62.42,45.93,8.88,6.8,16.79,14.9,24.75,22.8,4,3.93,3.64,7.36-1,11.51a214.92,214.92,0,0,1-18.67,14.83c-16.61,11.81-33.42,23.35-50.15,35-20.12,14-40.3,27.94-60.32,42.09-21.1,14.91-42,30.15-63.07,45-22.18,15.67-44.6,31-66.78,46.67-14.74,10.42-29.31,21.09-43.81,31.83-7.14,5.29-15.47,4.94-23.59,5.37-1.13.05-3.52-3.14-3.46-4.77.17-4.78-1.69-7-6.33-6.73-2.83.14-3.13-1.26-4-3.68-4-11.48,0-22.25,2.18-33.23,1.78-8.89,3.11-17.87,5.06-26.71,2.41-11,5.45-21.77,7.84-32.73,2.05-9.34,3.61-18.79,5.31-28.2.65-3.64-.61-5-4.67-4.61-12.54,1.29-25.13,2.08-37.68,3.23-14.84,1.35-29.67,2.85-44.49,4.31-12.39,1.23-24.79,2.35-37.16,3.78-17.48,2-34.92,4.31-52.39,6.42-8.06,1-16.13,1.77-24.2,2.63-18.15,1.95-36.28,4-54.45,5.8-12.23,1.19-24.5,2.08-36.78,2.78-5.61.32-8.6-2.27-9.77-7.85-.74-3.53-2.29-5.39-6.09-6-5.41-.82-8.32-5-8.32-11.21q0-49.9,0-99.81,0-53.16,0-106.3c0-9.92,6.17-14.76,15.67-12.44a28.91,28.91,0,0,0,4.46.55c18.35,1.58,36.71,3.05,55.06,4.73,13,1.2,26.08,2.7,39.13,4,13.86,1.41,28,1.67,41.55,4.43,19.51,4,39.28,3.76,58.87,6,9.69,1.09,19.29,2.92,29,4.18,7.88,1,15.8,1.77,23.71,2.57,12.17,1.25,24.34,2.58,36.54,3.58C429.28,177.65,434.43,177.3,440.68,177.3Z" transform="translate(-120.24 -23.51)"/><path class="cls-1" d="M460.57,205c-.76-3.28-1.5-6.25-2.14-9.24q-3.1-14.35-6.17-28.73c-1.12-5.22-2.2-10.45-3.41-15.65-2.62-11.24-5.47-22.44-7.91-33.71-1.63-7.51-2.8-15.1-4-22.68-.52-3.2,1.08-4.18,4.89-4.7,10-1.37,16.06,4.46,22.84,8.89,14.76,9.65,29.25,19.63,43.93,29.38q20.19,13.41,40.56,26.63,39.75,26,79.51,51.92c7.94,5.2,15.63,10.69,23.55,15.91,17.39,11.46,35.05,22.6,52.2,34.33,7.42,5.07,14,11.13,20.69,17,3.31,2.94,3,5.5-.83,8.6A179.29,179.29,0,0,1,708.63,294c-13.9,8.82-28,17.44-41.94,26.15-16.82,10.48-33.7,20.88-50.44,31.45-17.64,11.14-35.08,22.53-52.73,33.66C545,397,526.23,408.45,507.68,420.16c-12.32,7.79-24.5,15.76-36.63,23.78-6,4-12.93,3.7-19.72,4-.95,0-2.94-2.35-2.9-3.56.15-3.58-1.41-5.22-5.29-5-2.37.11-2.61-.94-3.31-2.74-3.32-8.58,0-16.63,1.83-24.83,1.48-6.65,2.6-13.36,4.22-20,2-8.18,4.56-16.26,6.56-24.45,1.71-7,3-14,4.44-21.08.54-2.71-.51-3.75-3.9-3.44-10.49,1-66.6,1.56-77.1,2.41-12.4,1-24.8,2.13-37.2,3.23-10.35.91-20.72,1.75-31.06,2.82-14.62,1.51-29.2,3.22-43.81,4.8-6.74.72-13.49,1.32-20.24,2-15.17,1.45-30.33,3-45.52,4.33-10.23.88-20.49,1.55-30.75,2.07-4.7.24-7.2-1.69-8.17-5.86-.62-2.64-1.91-4-5.09-4.46-4.53-.61-7-3.77-7-8.38q0-37.29,0-74.58,0-39.72,0-79.44c0-7.41,5.15-11,13.1-9.29a27.14,27.14,0,0,0,3.72.41c15.35,1.18,30.7,2.28,46,3.54,10.92.89,21.81,2,32.72,3,11.59,1.06,23.38,1.25,34.74,3.32,16.31,2.95,32.84,2.8,49.23,4.45,8.1.81,16.12,2.18,24.21,3.13,6.59.77,13.21,1.31,19.82,1.92,10.18.92,65.94,1.92,76.14,2.67C451,205.22,455.34,205,460.57,205Z" transform="translate(-120.24 -23.51)"/></svg>